<svg xmlns="http://www.w3.org/2000/svg" width="65.676" height="47.738" viewBox="0 0 65.676 47.738"><defs><style>.a{fill:#333;}</style></defs><path class="a" d="M5.691,47.738A5.7,5.7,0,0,1,0,42.049V5.691A5.7,5.7,0,0,1,5.691,0H59.985a5.7,5.7,0,0,1,5.691,5.691V42.049a5.7,5.7,0,0,1-5.691,5.689Zm0-46.053A4.01,4.01,0,0,0,1.686,5.691V42.049a4.01,4.01,0,0,0,4.005,4.005H59.985a4.01,4.01,0,0,0,4.005-4.005V5.691a4.01,4.01,0,0,0-4.005-4.005Z"/><path class="a" d="M175.312,83.819a.594.594,0,0,1-.34-.105l-.017-.012-.017-.011a.919.919,0,0,1-.439-.733v-16.3a.762.762,0,0,1,.4-.693l.032-.017.031-.022a.682.682,0,0,1,.756,0l.02.012,13.938,8.186.023.012a.762.762,0,0,1,.342,1.022.773.773,0,0,1-.342.34l-.023.012L175.745,83.69h-.012a.761.761,0,0,1-.4.121Zm.872-2.32,11.345-6.69L176.184,68.13Z" transform="translate(-147.512 -55.633)"/><path class="a" d="M21.295,207.3v-4.039H8.36v-1.686H21.295V195.92h7.341v5.655H71.458v1.686H28.628V207.3Zm1.686-1.686h3.97v-8.009H22.973Z" transform="translate(-7.067 -165.621)"/></svg>