<svg xmlns="http://www.w3.org/2000/svg" width="61.211" height="61.212" viewBox="0 0 61.211 61.212"><defs><style>.a{fill:#333;}</style></defs><g transform="translate(-0.007 0.001)"><path class="a" d="M4.96,60.237c32.957,6.723,61.995-22.4,55.285-55.285a5.121,5.121,0,0,0-4-4A46.841,46.841,0,0,0,.962,56.239a5.122,5.122,0,0,0,4,4Zm-2.742-7.3A45.1,45.1,0,0,1,2.026,42.31L4.217,44.5a54.358,54.358,0,0,0-2,8.432Zm.1-12.869a45.1,45.1,0,0,1,2.013-8.119l3.61,3.61a59.914,59.914,0,0,0-3.076,7.056Zm3,18.416a3.327,3.327,0,0,1-1.8-1.02,51.438,51.438,0,0,1,2.125-11.53l4.685,4.685A.9.9,0,1,0,11.6,49.349L6.267,44.016a57.858,57.858,0,0,1,3-7.128L29.254,56.871a45.092,45.092,0,0,1-8.119,2.013l-6.577-6.577a.9.9,0,0,0-1.268,1.267l5.6,5.6a45.255,45.255,0,0,1-13.571-.692Zm25.781-2.3L10.14,35.222A60.322,60.322,0,0,1,13.387,29.9l.817.817a.9.9,0,1,0,1.268-1.267l-1.035-1.035q.584-.8,1.2-1.589l.943.943a.9.9,0,1,0,1.268-1.267L16.76,25.422q.628-.76,1.281-1.5l.907.907a.9.9,0,0,0,1.268-1.267l-.97-.97q.669-.719,1.363-1.422l.9.9A.9.9,0,0,0,22.78,20.8l-.894-.894q.713-.684,1.444-1.342l.939.939a.9.9,0,0,0,1.268-1.267l-.855-.855q.755-.643,1.526-1.259l1.01,1.01a.9.9,0,0,0,1.268-1.267l-.85-.85q.8-.6,1.612-1.173l.919.919a.9.9,0,0,0,1.268-1.267l-.678-.678q2.185-1.441,4.475-2.681l9.1,9.1A.9.9,0,0,0,45.6,17.966l-8.7-8.7a57.862,57.862,0,0,1,7.128-3L58.891,21.128a45.09,45.09,0,0,1-2.013,8.119l-8.324-8.324a.9.9,0,0,0-1.268,1.267l8.9,8.9A45.173,45.173,0,0,1,31.1,56.181ZM40.072,2.308l2.546,2.546a59.906,59.906,0,0,0-7.056,3.076l-3.61-3.61a45.106,45.106,0,0,1,8.119-2.013ZM59.181,18.882,45.939,5.64a51.444,51.444,0,0,1,11.53-2.125,3.326,3.326,0,0,1,1.02,1.8A45.251,45.251,0,0,1,59.181,18.882ZM52.942,2.21a54.352,54.352,0,0,0-8.434,2L42.316,2.018a45.116,45.116,0,0,1,10.625.192ZM30.107,5.01l3.8,3.8q-2.274,1.257-4.448,2.709l-1.2-1.2A.9.9,0,0,0,27,11.593l.962.962q-.811.576-1.606,1.179L25.318,12.7a.9.9,0,0,0-1.268,1.267l.881.881q-.769.618-1.522,1.263l-1.04-1.04A.9.9,0,0,0,21.1,16.338l.959.959q-.729.659-1.443,1.343l-1-1A.9.9,0,0,0,18.346,18.9l1,1q-.694.7-1.364,1.421l-.928-.928a.9.9,0,1,0-1.268,1.267l.99.99q-.655.742-1.284,1.5l-.811-.811a.9.9,0,1,0-1.268,1.267l.946.946q-.614.784-1.2,1.583l-.849-.848a.9.9,0,0,0-1.268,1.267L12.1,28.616A62.2,62.2,0,0,0,8.82,33.9l-3.8-3.8A45.176,45.176,0,0,1,30.107,5.01Z" transform="translate(0 0)"/></g></svg>