<svg xmlns="http://www.w3.org/2000/svg" width="20.343" height="18.013" viewBox="0 0 20.343 18.013"><defs><style>.a{fill:#fff;}.a,.b{fill-rule:evenodd;}.b{fill:#1c49af;}</style></defs><path class="a" d="M0,63.9l.015,9.312c.055,0,.055.057,0,.053l4.385.01V69.807l5.545-.01-.013,3.482L14.1,73.3V68.67l.2.053a3.181,3.181,0,0,1,.571,1.45q.621,3.183,2.667,3.572a2.124,2.124,0,0,0,1.374-.171,2.541,2.541,0,0,0,1.437-2.641V69.674H18.527v1.417a.508.508,0,0,1-.312.528.279.279,0,0,1-.262,0q-.648-.644-.738-3.255a8.713,8.713,0,0,1-.127-1.4V63.89Z" transform="translate(0 -55.777)"/><path class="a" d="M.01,7.789H17.026V4.076c0-1.5-1.291-2.372-2.682-3.068C12.428.049,9.477-.21,6,.171,1.8.637.37,2.288,0,4.32Z" transform="translate(0 -0.003)"/><path class="b" d="M13.934,21.08l1.093.794,1.095-.794L15.7,22.368l1.1.8H15.447l-.418,1.284-.417-1.284H13.26l1.092-.8-.418-1.288Z" transform="translate(-11.576 -18.404)"/><path class="b" d="M54.353,21.08l1.095.794,1.095-.794-.418,1.288,1.1.8H55.867l-.418,1.284-.417-1.284H53.68l1.091-.8-.418-1.288Z" transform="translate(-46.864 -18.404)"/><path class="b" d="M95.024,21.08l1.093.794,1.095-.794-.418,1.288,1.1.8H96.537l-.418,1.284L95.7,23.166H94.35l1.092-.8-.418-1.288Z" transform="translate(-82.369 -18.404)"/></svg>