<svg xmlns="http://www.w3.org/2000/svg" width="13.945" height="13.945" viewBox="0 0 13.945 13.945"><defs><style>.a{fill:#202020;}</style></defs><path class="a" d="M17.5,17.118h0V12c0-2.5-.539-4.429-3.464-4.429a3.036,3.036,0,0,0-2.735,1.5h-.041V7.808H8.489v9.31h2.888v-4.61c0-1.214.23-2.387,1.733-2.387,1.481,0,1.5,1.385,1.5,2.465v4.533Z" transform="translate(-3.557 -3.173)"/><path class="a" d="M.4,7.977H3.287v9.31H.4Z" transform="translate(-0.166 -3.342)"/><path class="a" d="M1.675,0A1.682,1.682,0,1,0,3.349,1.675,1.675,1.675,0,0,0,1.675,0Z"/></svg>