<svg xmlns="http://www.w3.org/2000/svg" width="13.693" height="15.583" viewBox="0 0 13.693 15.583"><defs><style>.a{fill:#333;stroke:#333;stroke-width:0.5px;}</style></defs><g transform="translate(-31.816 0.25)"><g transform="translate(32.066)"><g transform="translate(0)"><path class="a" d="M44.566,0H32.759a.694.694,0,0,0-.693.693v1.4a.932.932,0,0,0,.209.587l4.877,5.985a.489.489,0,0,1,.11.308v5.651a.456.456,0,0,0,.661.409l1.759-.879a.689.689,0,0,0,.383-.62V8.974a.489.489,0,0,1,.11-.308l4.877-5.985a.932.932,0,0,0,.209-.587V.693A.694.694,0,0,0,44.566,0ZM39.623,8.974v4.561a.25.25,0,0,1-.139.225l-1.759.879a.015.015,0,0,1-.022-.014V8.974c0-.01,0-.021,0-.031h1.921C39.623,8.953,39.623,8.964,39.623,8.974Zm5.2-7.085h-.724a.221.221,0,0,0,0,.442h.662a.487.487,0,0,1-.048.071L39.831,8.387a.926.926,0,0,0-.079.114H37.573a.925.925,0,0,0-.079-.114L32.617,2.4a.484.484,0,0,1-.048-.071h.662a.221.221,0,1,0,0-.442h-.724V.693a.252.252,0,0,1,.251-.251H44.566a.252.252,0,0,1,.251.251v1.2Z" transform="translate(-32.066)"/></g></g><g transform="translate(33.955 1.889)"><g transform="translate(0)"><path class="a" d="M103.782,64.128H96.376a.225.225,0,0,0,0,.442h7.406a.225.225,0,0,0,0-.442Z" transform="translate(-95.372 -64.128)"/></g></g></g></svg>