<svg xmlns="http://www.w3.org/2000/svg" width="13.945" height="11.33" viewBox="0 0 13.945 11.33">
  <path id="Hover" d="M12.512,5.076a5.707,5.707,0,0,0,1.433-1.484h0a5.97,5.97,0,0,1-1.647.451,2.844,2.844,0,0,0,1.258-1.58,5.72,5.72,0,0,1-1.813.692A2.859,2.859,0,0,0,6.8,5.109a2.944,2.944,0,0,0,.066.652A8.094,8.094,0,0,1,.971,2.771a2.859,2.859,0,0,0,.879,3.821A2.826,2.826,0,0,1,.558,6.239v.031A2.872,2.872,0,0,0,2.848,9.08a2.843,2.843,0,0,1-.75.094,2.523,2.523,0,0,1-.541-.049,2.887,2.887,0,0,0,2.671,1.992A5.747,5.747,0,0,1,.684,12.336,5.407,5.407,0,0,1,0,12.3,8.051,8.051,0,0,0,4.386,13.58a8.081,8.081,0,0,0,8.126-8.5Z" transform="translate(0 -2.25)" fill="#d53337"/>
</svg>
